<?xml version="1.0" encoding="UTF-8" standalone="no"?>
<!-- Generator: Adobe Illustrator 16.0.0, SVG Export Plug-In . SVG Version: 6.00 Build 0)  -->

<svg
   xmlns:dc="http://purl.org/dc/elements/1.1/"
   xmlns:cc="http://creativecommons.org/ns#"
   xmlns:rdf="http://www.w3.org/1999/02/22-rdf-syntax-ns#"
   xmlns:svg="http://www.w3.org/2000/svg"
   xmlns="http://www.w3.org/2000/svg"
   xmlns:sodipodi="http://sodipodi.sourceforge.net/DTD/sodipodi-0.dtd"
   xmlns:inkscape="http://www.inkscape.org/namespaces/inkscape"
   version="1.1"
   id="Capa_1"
   x="0px"
   y="0px"
   width="32.046px"
   height="32.045px"
   viewBox="0 0 32.046 32.045"
   style="enable-background:new 0 0 32.046 32.045;"
   xml:space="preserve"
   inkscape:version="0.91 r13725"
   sodipodi:docname="ITindustry.svg"><metadata
     id="metadata49"><rdf:RDF><cc:work
         rdf:about=""><dc:format>image/svg+xml</dc:format><dc:type
           rdf:resource="http://purl.org/dc/dcmitype/StillImage" /><dc:title /><cc:license
           rdf:resource="" /><dc:rights><cc:Agent><dc:title>Logo Icon made by Freepik from www.flaticon.com</dc:title></cc:Agent></dc:rights></cc:work></rdf:RDF></metadata><defs
     id="defs47" /><sodipodi:namedview
     pagecolor="#ffffff"
     bordercolor="#666666"
     borderopacity="1"
     objecttolerance="10"
     gridtolerance="10"
     guidetolerance="10"
     inkscape:pageopacity="0"
     inkscape:pageshadow="2"
     inkscape:window-width="1824"
     inkscape:window-height="973"
     id="namedview45"
     showgrid="false"
     inkscape:zoom="33.045623"
     inkscape:cx="16.021883"
     inkscape:cy="16.021998"
     inkscape:window-x="-8"
     inkscape:window-y="-8"
     inkscape:window-maximized="1"
     inkscape:current-layer="g5" /><g
     style="fill:#ffffff;stroke:#000000;stroke-width:0.5;stroke-miterlimit:4;stroke-dasharray:none;stroke-opacity:1"
     id="g5"><g
       id="g4152"
       transform="matrix(0.74110797,0,0,0.74509054,4.6779299,3.8877165)"
       style="fill:#008000"><path
         d="m 18.812,12.025 -0.55,1.798 c 0.491,0.157 0.85,0.639 0.85,1.21 0,0.286 -0.091,0.549 -0.242,0.761 l 1.433,1.17 c 0.396,-0.533 0.63,-1.203 0.63,-1.932 -0.001,-1.426 -0.9,-2.622 -2.121,-3.007 z"
         id="path7"
         style="fill:#008000;stroke:#000000;stroke-width:0.80000001;stroke-miterlimit:4;stroke-dasharray:none;stroke-opacity:1"
         inkscape:connector-curvature="0" /><path
         d="m 17.622,16.374 c -0.652,-0.006 -1.179,-0.572 -1.179,-1.262 0,-0.689 0.526,-1.255 1.179,-1.26 0.123,-10e-4 0.24,0.018 0.353,0.054 l 0.547,-1.795 c -0.285,-0.09 -0.587,-0.136 -0.898,-0.129 -1.61,0.033 -2.895,1.436 -2.895,3.129 0,1.694 1.284,3.099 2.895,3.132 0.963,0.021 1.828,-0.451 2.383,-1.202 L 18.58,15.872 c -0.222,0.307 -0.567,0.505 -0.958,0.502 z"
         id="path9"
         style="fill:#008000;stroke:#000000;stroke-width:0.80000001;stroke-miterlimit:4;stroke-dasharray:none;stroke-opacity:1"
         inkscape:connector-curvature="0" /><path
         d="m 30.155,12.956 c 1.891,-0.733 1.891,-0.804 1.891,-0.994 l 0,-1.482 c 0,-0.19 0,-0.27 -1.892,-0.944 L 30.088,9.512 29.821,8.879 29.849,8.815 C 30.654,6.992 30.598,6.938 30.464,6.806 L 29.394,5.759 C 29.35,5.716 29.273,5.685 29.206,5.685 c -0.062,0 -0.242,0 -1.826,0.717 L 27.317,6.43 26.666,6.167 26.64,6.102 C 25.895,4.258 25.817,4.258 25.633,4.258 l -1.514,0 c -0.187,0 -0.27,0 -0.959,1.847 L 23.134,6.172 22.485,6.437 22.423,6.411 C 21.352,5.959 20.727,5.73 20.564,5.73 c -0.065,0 -0.144,0.03 -0.188,0.073 l -1.073,1.049 c -0.136,0.134 -0.192,0.19 0.653,1.975 l 0.03,0.066 -0.266,0.632 -0.066,0.025 c -0.215,0.083 -0.401,0.157 -0.57,0.224 -0.063,0.025 -0.438,0.269 -0.673,0.417 l -4.931,-0.27 -1.696,8.13 -0.001,0 -0.033,0.005 C 11.34,17.36 10.576,16.964 9.511,16.964 l -0.466,0 c -0.625,0.61 -1.718,1.019 -2.97,1.019 -1.252,0 -2.345,-0.408 -2.97,-1.019 l -0.466,0 c -1.643,0 -2.584,0.928 -2.584,2.476 0,1.549 -0.05,5.781 -0.05,6.625 0,0.844 -0.101,1.723 0.627,1.723 0.269,0 1.125,0 2.235,0 1.059,0 2.076,0 3.009,0 0.129,0 0.272,0 0.397,0 1.196,0 2.19,0 2.762,0 0.102,0 0.173,0 0.247,0 0.032,0 0.08,0 0.106,0 0.93,0 1.644,0 1.882,0 0.099,0 0.192,0 0.247,0 0.729,0 0.627,-0.879 0.627,-1.723 0,-0.13 -0.002,-0.349 -0.003,-0.617 l 19.881,0 0,-1.345 -19.892,0 c -0.004,-0.379 -0.008,-0.784 -0.012,-1.196 l 1.895,0.725 9.375,-1.491 0.939,-3.896 1.367,0 c 0.19,0 0.27,0 0.959,-1.848 l 0.026,-0.066 0.65,-0.263 0.062,0.025 c 1.07,0.453 1.695,0.682 1.857,0.682 0.064,0 0.145,-0.029 0.188,-0.072 l 1.073,-1.051 c 0.136,-0.135 0.191,-0.19 -0.655,-1.973 l -0.03,-0.067 0.265,-0.63 0.066,-0.026 z m -16.204,-2.275 9.806,0.655 -2.146,9.061 -9.188,-2.6 1.528,-7.116 z m -1.856,8.759 c 0,-0.277 -0.04,-0.527 -0.1,-0.764 l 0.035,-0.006 7.777,2.221 -3.552,0.503 -4.159,-1.354 c 0,-0.225 -10e-4,-0.43 -10e-4,-0.6 z m 0.005,1.149 1.073,0.358 -1.069,0.16 C 12.102,20.929 12.101,20.755 12.1,20.589 Z m 13.351,-6.998 0.565,-2.347 -0.568,-0.396 -2.538,10.828 -8.834,1.292 0,-0.004 -1.963,-0.718 c -0.002,-0.188 -0.004,-0.371 -0.005,-0.555 l 1.999,0.717 8.259,-1.108 2.547,-10.756 -2.273,-0.123 c 0.027,-0.101 0.056,-0.201 0.063,-0.216 0.396,-0.802 1.234,-1.357 2.204,-1.357 1.353,0 2.451,1.078 2.451,2.404 0,1.141 -0.816,2.096 -1.907,2.339 z"
         id="path11"
         style="fill:#008000;stroke:#000000;stroke-width:0.80000001;stroke-miterlimit:4;stroke-dasharray:none;stroke-opacity:1"
         inkscape:connector-curvature="0" /><path
         d="m 1.618,11.909 c -0.009,0.058 -0.021,0.116 -0.028,0.175 -0.273,2.544 1.526,4.833 4.012,5.102 2.487,0.27 4.734,-1.583 5.01,-4.127 0.041,-0.393 0.029,-0.778 -0.023,-1.152 0.292,-0.002 0.473,-0.006 0.513,-0.012 0.317,-0.04 0.57,-0.063 0.596,-0.413 0.005,-0.467 -0.008,-0.392 -0.001,-0.461 0.008,-0.404 -0.229,-0.357 -0.491,-0.385 -0.262,-0.028 -0.583,0.012 -0.583,0.012 0,0 -0.755,-5.076 -5.451,-4.247 C 3.768,6.649 2.843,7.242 2.235,7.95 3.434,7.354 4.848,7.068 6.078,7.237 7.251,7.399 8.171,7.943 8.764,8.808 8.369,8.515 7.926,8.285 7.442,8.135 6.959,7.85 6.446,7.712 6.019,7.653 4.601,7.451 2.93,7.899 1.693,8.749 0.9,10.26 1.13,11.907 1.13,11.907 c 0,0 0.183,0 0.488,0.002 z m 0.807,0.265 c 0.009,-0.089 0.025,-0.176 0.042,-0.263 1.897,0.003 5.361,0.009 7.275,0.001 0.059,0.341 0.074,0.695 0.034,1.056 C 9.55,15.052 7.717,16.571 5.692,16.351 3.664,16.132 2.2,14.258 2.425,12.174 Z"
         id="path13"
         style="fill:#008000;stroke:#000000;stroke-width:0.80000001;stroke-miterlimit:4;stroke-dasharray:none;stroke-opacity:1"
         inkscape:connector-curvature="0" /></g></g><g
     id="g15" /><g
     id="g17" /><g
     id="g19" /><g
     id="g21" /><g
     id="g23" /><g
     id="g25" /><g
     id="g27" /><g
     id="g29" /><g
     id="g31" /><g
     id="g33" /><g
     id="g35" /><g
     id="g37" /><g
     id="g39" /><g
     id="g41" /><g
     id="g43" /></svg>
