<?xml version="1.0" encoding="UTF-8" standalone="no"?>
<!-- Created with Inkscape (http://www.inkscape.org/) -->

<svg
   xmlns:dc="http://purl.org/dc/elements/1.1/"
   xmlns:cc="http://creativecommons.org/ns#"
   xmlns:rdf="http://www.w3.org/1999/02/22-rdf-syntax-ns#"
   xmlns:svg="http://www.w3.org/2000/svg"
   xmlns="http://www.w3.org/2000/svg"
   xmlns:sodipodi="http://sodipodi.sourceforge.net/DTD/sodipodi-0.dtd"
   xmlns:inkscape="http://www.inkscape.org/namespaces/inkscape"
   width="103.25055"
   height="68.511536"
   id="svg2"
   sodipodi:version="0.32"
   inkscape:version="0.91 r13725"
   version="1.0"
   sodipodi:docname="Six_sigma-2.svg">
  <defs
     id="defs4" />
  <sodipodi:namedview
     id="base"
     pagecolor="#ffffff"
     bordercolor="#666666"
     borderopacity="1.0"
     inkscape:pageopacity="0.0"
     inkscape:pageshadow="2"
     inkscape:zoom="3.8280246"
     inkscape:cx="155.48879"
     inkscape:cy="-35.53702"
     inkscape:document-units="mm"
     inkscape:current-layer="layer1"
     showgrid="true"
     gridtolerance="1mm"
     inkscape:grid-points="true"
     guidetolerance="1mm"
     inkscape:guide-points="true"
     inkscape:window-width="1824"
     inkscape:window-height="973"
     inkscape:window-x="-8"
     inkscape:window-y="-8"
     width="313.97px"
     height="210.03px"
     inkscape:window-maximized="1"
     fit-margin-top="0"
     fit-margin-left="0"
     fit-margin-right="0"
     fit-margin-bottom="0">
    <inkscape:grid
       id="GridFromPre046Settings"
       type="xygrid"
       originx="-1.4962147"
       originy="-140.55202"
       spacingx="1mm"
       spacingy="1mm"
       color="#3f3fff"
       empcolor="#3f3fff"
       opacity="0.15"
       empopacity="0.38"
       empspacing="5" />
  </sodipodi:namedview>
  <metadata
     id="metadata7">
    <rdf:RDF>
      <cc:Work
         rdf:about="">
        <dc:format>image/svg+xml</dc:format>
        <dc:type
           rdf:resource="http://purl.org/dc/dcmitype/StillImage" />
        <dc:creator>
          <cc:Agent>
            <dc:title>Alexandre Erwin Ittner</dc:title>
          </cc:Agent>
        </dc:creator>
        <dc:title>SixSigma</dc:title>
        <cc:license
           rdf:resource="http://creativecommons.org/licenses/by-sa/2.0/" />
      </cc:Work>
      <cc:License
         rdf:about="http://creativecommons.org/licenses/by-sa/2.0/">
        <cc:permits
           rdf:resource="http://web.resource.org/cc/Reproduction" />
        <cc:permits
           rdf:resource="http://web.resource.org/cc/Distribution" />
        <cc:requires
           rdf:resource="http://web.resource.org/cc/Notice" />
        <cc:requires
           rdf:resource="http://web.resource.org/cc/Attribution" />
        <cc:permits
           rdf:resource="http://web.resource.org/cc/DerivativeWorks" />
        <cc:requires
           rdf:resource="http://web.resource.org/cc/ShareAlike" />
      </cc:License>
    </rdf:RDF>
  </metadata>
  <g
     inkscape:label="Layer 1"
     inkscape:groupmode="layer"
     id="layer1"
     transform="translate(-6.0419007,-4.931832)">
    <path
       style="font-style:normal;font-variant:normal;font-weight:normal;font-stretch:normal;font-size:288px;line-height:125%;font-family:'Standard Symbols L';text-align:start;writing-mode:lr-tb;text-anchor:start;fill:#000000;fill-opacity:1;stroke:none;stroke-width:1px;stroke-linecap:butt;stroke-linejoin:miter;stroke-opacity:1"
       d="m 43.817011,4.9327209 c -7.95983,0.0902 -12.23341,1.14608 -17.84919,4.51555 C 13.993621,16.515001 6.0419007,31.141561 6.0419007,46.158391 c 0,15.6057 9.1315603,27.28498 21.2039103,27.28498 11.5816,0 21.19325,-10.10446 21.19325,-22.47124 0,-11.67975 -8.04237,-19.92592 -19.32953,-19.92592 -4.41671,0 -8.54648,1.27518 -12.86505,4.1215 3.72967,-16.29275 15.12259,-27.4856201 28.76532,-28.4671101 l 0,-1.76788 c -0.27298,0 -0.54467,-0.002 -0.80939,0 -0.12822,9.5e-4 -0.25705,-10e-4 -0.3834,0 z m 41.97116,18.1580401 c -7.08949,0.0907 -12.06564,0.98644 -16.3369,2.84351 -9.52047,4.31857 -14.92048,11.98018 -14.92048,21.10806 0,6.37969 2.45016,12.85193 6.96502,17.95569 5.10375,5.88895 10.70245,8.44535 18.45623,8.44535 6.67415,0 12.36519,-2.05696 16.88006,-6.08108 4.416709,-4.02411 7.060859,-9.62041 7.060859,-14.92047 1e-5,-7.45934 -5.688149,-14.82277 -16.091959,-20.80986 l 21.491449,0 0,-8.5412 -22.279539,0 c -0.24231,0 -0.47598,-0.002 -0.71354,0 -0.17261,0.001 -0.34105,-0.002 -0.5112,0 z m -6.17692,8.5412 c 0.035,-9.3e-4 0.0714,7.4e-4 0.1065,0 0.14261,-0.003 0.28183,0 0.42599,0 l 3.04586,0 c 8.44083,8.73527 10.29843,12.46343 10.29843,20.51166 0,10.20753 -4.89912,17.0824 -12.16215,17.0824 -9.02972,0 -16.49666,-9.91966 -16.49666,-21.99199 0,-9.23887 5.8566,-15.36706 14.78203,-15.60207 z m -53.92033,4.1215 c 0.0516,-0.001 0.10777,9.5e-4 0.15975,0 0.13523,-0.002 0.26667,0 0.4047,0 4.90745,0 8.25399,2.06216 10.51142,6.77332 1.96299,3.92597 3.03522,8.73128 3.03522,13.3443 0,8.53898 -4.31653,14.03653 -10.99067,14.03653 -8.63713,0 -14.13239,-8.92581 -14.13239,-22.96113 0,-2.45373 0.19545,-5.50343 0.4899,-6.97567 0.0982,-0.3926 0.0958,-0.38714 0.0958,-0.68159 4.64207,-2.59957 7.17502,-3.45199 10.42622,-3.53576 z"
       id="text5184"
       inkscape:connector-curvature="0" />
  </g>
</svg>
