<?xml version="1.0" encoding="UTF-8" standalone="no"?>
<!-- Created with Inkscape (http://www.inkscape.org/) -->
<svg
   xmlns:dc="http://purl.org/dc/elements/1.1/"
   xmlns:cc="http://web.resource.org/cc/"
   xmlns:rdf="http://www.w3.org/1999/02/22-rdf-syntax-ns#"
   xmlns:svg="http://www.w3.org/2000/svg"
   xmlns="http://www.w3.org/2000/svg"
   xmlns:sodipodi="http://sodipodi.sourceforge.net/DTD/sodipodi-0.dtd"
   xmlns:inkscape="http://www.inkscape.org/namespaces/inkscape"
   width="313.97"
   height="210.03"
   id="svg2"
   sodipodi:version="0.32"
   inkscape:version="0.44"
   version="1.0"
   sodipodi:docbase="C:\Dokumente und Einstellungen\Lukas Buchs\Desktop"
   sodipodi:docname="Six_sigma.svg">
  <defs
     id="defs4" />
  <sodipodi:namedview
     id="base"
     pagecolor="#ffffff"
     bordercolor="#666666"
     borderopacity="1.0"
     inkscape:pageopacity="0.0"
     inkscape:pageshadow="2"
     inkscape:zoom="1.979899"
     inkscape:cx="150.50168"
     inkscape:cy="79.921466"
     inkscape:document-units="mm"
     inkscape:current-layer="layer1"
     showgrid="true"
     gridspacingy="1mm"
     gridspacingx="1mm"
     gridoriginy="0mm"
     gridoriginx="0mm"
     gridtolerance="1mm"
     inkscape:grid-points="true"
     guidetolerance="1mm"
     inkscape:guide-points="true"
     inkscape:window-width="1028"
     inkscape:window-height="746"
     inkscape:window-x="0"
     inkscape:window-y="0"
     width="313.97px"
     height="210.03px" />
  <metadata
     id="metadata7">
    <rdf:RDF>
      <cc:Work
         rdf:about="">
        <dc:format>image/svg+xml</dc:format>
        <dc:type
           rdf:resource="http://purl.org/dc/dcmitype/StillImage" />
        <dc:creator>
          <cc:Agent>
            <dc:title>Alexandre Erwin Ittner</dc:title>
          </cc:Agent>
        </dc:creator>
        <dc:title>SixSigma</dc:title>
        <cc:license
           rdf:resource="http://creativecommons.org/licenses/by-sa/2.0/" />
      </cc:Work>
      <cc:License
         rdf:about="http://creativecommons.org/licenses/by-sa/2.0/">
        <cc:permits
           rdf:resource="http://web.resource.org/cc/Reproduction" />
        <cc:permits
           rdf:resource="http://web.resource.org/cc/Distribution" />
        <cc:requires
           rdf:resource="http://web.resource.org/cc/Notice" />
        <cc:requires
           rdf:resource="http://web.resource.org/cc/Attribution" />
        <cc:permits
           rdf:resource="http://web.resource.org/cc/DerivativeWorks" />
        <cc:requires
           rdf:resource="http://web.resource.org/cc/ShareAlike" />
      </cc:License>
    </rdf:RDF>
  </metadata>
  <g
     inkscape:label="Layer 1"
     inkscape:groupmode="layer"
     id="layer1"
     transform="translate(-4.545686,-3.965395)">
    <path
       style="font-size:288px;font-style:normal;font-variant:normal;font-weight:normal;font-stretch:normal;text-align:start;line-height:125%;writing-mode:lr-tb;text-anchor:start;fill:black;fill-opacity:1;stroke:none;stroke-width:1px;stroke-linecap:butt;stroke-linejoin:miter;stroke-opacity:1;font-family:Standard Symbols L"
       d="M 121.45036,8.513644 C 98.093751,8.778214 85.553773,11.876591 69.075351,21.763644 C 33.939385,42.499624 10.606602,85.41843 10.606602,129.4824 C 10.606602,175.27432 37.401386,209.5449 72.825351,209.5449 C 106.80933,209.5449 135.01286,179.89532 135.01286,143.6074 C 135.01286,109.33543 111.41408,85.138644 78.294101,85.138644 C 65.334114,85.138647 53.216088,88.880404 40.544101,97.232394 C 51.48809,49.424447 84.918391,16.581144 124.95036,13.701144 L 124.95036,8.513644 C 124.14936,8.513644 123.35213,8.5078784 122.57536,8.513644 C 122.19911,8.5164367 121.8211,8.5094445 121.45036,8.513644 z M 244.60661,61.794894 C 223.80387,62.061064 209.2023,64.689435 196.66911,70.138644 C 168.73314,82.810635 152.88786,105.29217 152.88786,132.07615 C 152.88786,150.79613 160.07737,169.78765 173.32536,184.76365 C 188.30134,202.04364 204.72963,209.5449 227.48161,209.5449 C 247.06559,209.5449 263.76487,203.50915 277.01286,191.70115 C 289.97286,179.89316 297.73161,163.47192 297.73161,147.9199 C 297.73162,126.03192 281.04083,104.42537 250.51286,86.857394 L 313.57536,86.857394 L 313.57536,61.794894 L 248.20036,61.794894 C 247.48936,61.794894 246.8037,61.789814 246.10661,61.794894 C 245.60013,61.798585 245.10588,61.788506 244.60661,61.794894 z M 226.48161,86.857394 C 226.58432,86.85469 226.69113,86.859566 226.79411,86.857394 C 227.21258,86.848568 227.62111,86.857394 228.04411,86.857394 L 236.98161,86.857394 C 261.74959,112.48937 267.20036,123.42892 267.20036,147.0449 C 267.20036,176.99692 252.82484,197.1699 231.51286,197.1699 C 205.01689,197.16991 183.10661,168.06257 183.10661,132.63865 C 183.10662,105.52899 200.29166,87.546982 226.48161,86.857394 z M 68.262851,98.951144 C 68.41428,98.947242 68.579083,98.953926 68.731601,98.951144 C 69.128395,98.943907 69.514101,98.951144 69.919101,98.951144 C 84.319088,98.951142 94.138858,105.00215 100.76285,118.82615 C 106.52285,130.34614 109.66911,144.44639 109.66911,157.9824 C 109.66911,183.03841 97.003081,199.1699 77.419101,199.1699 C 52.075124,199.1699 35.950351,172.97882 35.950351,131.7949 C 35.950351,124.59491 36.523852,115.64615 37.387851,111.32615 C 37.675851,110.17415 37.669101,110.19015 37.669101,109.32615 C 51.290376,101.69823 58.722813,99.196955 68.262851,98.951144 z "
       id="text5184" />
  </g>
</svg>
